PathFileType	4	(X/Y/Z)	OpenSim_Sub05_CSStiffKnee_Accel.trc
DataRate	CameraRate	NumFrames	NumMarkers	Units	OrigDataRate	OrigDataStartFrame	OrigNumFrames
100	100	20	8	m	100	1407	11248
Frame#	Time	torso_imu_offset_imu	pelvis_imu_offset_imu	tibia_r_imu_offset_imu	femur_r_imu_offset_imu	tibia_l_imu_offset_imu	femur_l_imu_offset_imu	toes_r_imu_offset_imu	toes_l_imu_offset_imu
				X1	Y1	Z1	X2	Y2	Z2	X3	Y3	Z3	X4	Y4	Z4	X5	Y5	Z5	X6	Y6	Z6	X7	Y7	Z7	X8		Y8	Z8	

1407	14.06000000	8.35246195	-0.59900537	3.83377358	7.44846478	1.72053958	4.68171998	10.29068907	2.16691170	0.31944062	10.34224405	-2.34914793	1.59128829	9.23503625	-0.67906278	1.34715430	8.30951188	-1.98725924	1.43501713	5.83878564	-1.68700069	8.28202251	4.56169067	2.65604497	12.12947339
1408	14.07000000	8.21668924	-0.75623390	4.04179242	7.70544597	1.64991529	4.65366422	10.19947030	1.96692474	0.37176790	10.44071037	-2.18265768	1.61153833	9.38086785	-0.97106667	1.33143383	8.57658097	-2.11826899	1.34429827	6.10288417	-1.62243439	8.00472400	5.05002274	2.85821259	12.55023539
1409	14.08000000	8.39787234	-0.71529041	4.24635999	8.05097434	1.48040362	4.59134539	9.89005810	1.62797648	0.27348617	10.17878411	-1.92661336	1.72265978	9.61723337	-1.32444952	1.19292475	8.66977936	-2.12434928	1.37554177	6.22832480	-1.49044023	7.80505548	5.15445337	2.97141041	12.56056505
1410	14.09000000	8.60880638	-0.56674260	4.38569949	8.29423141	1.32897474	4.49666446	9.94724894	1.07463897	-0.04155744	9.43185408	-1.34240052	2.03986943	9.70262604	-1.61785425	1.30862442	8.78596785	-1.92116349	1.25502727	6.09860763	-1.59517807	7.88384181	5.06810415	3.03425613	12.61623342
1411	14.10000000	8.64662900	-0.39687868	4.34882693	8.36781038	1.23446142	4.42283988	10.17281079	1.04004451	0.00309158	9.04095819	-0.63620907	2.16887389	9.91403973	-1.80927037	1.36971194	9.09638974	-1.54250074	1.26518751	6.18397541	-1.90913574	7.66595263	5.10813614	2.98607671	12.60576864
1412	14.11000000	8.65430587	-0.29584504	4.33274116	8.38244108	1.07946308	4.28548916	9.97272254	1.57811911	-0.21181214	8.90247752	-0.51796696	2.08524950	9.98574380	-2.08962515	1.13403695	9.15084257	-1.11799917	1.51964680	6.39481397	-1.87432722	7.47081841	5.24630291	2.73358455	12.44722964
1413	14.12000000	8.70419776	-0.29463904	4.38225957	8.22107306	0.89601765	4.11188399	9.52983231	1.95387382	-0.45161390	8.62893722	-0.65439448	2.16929409	9.75530557	-2.38683590	1.05068289	8.99823998	-0.45511733	1.50806340	6.41990859	-1.98203274	7.30959162	5.57647022	2.49812986	12.30303517
1414	14.13000000	8.69952208	-0.32444928	4.32362869	8.12118430	0.79131094	3.83476727	9.04647211	2.35036388	-0.33433000	8.80630183	-1.08171762	2.28661824	9.57947016	-2.51401174	1.09837210	9.02655813	0.05902313	1.47353235	6.33439619	-2.22629432	7.26246475	5.94965447	2.28857439	12.19524131
1415	14.14000000	8.73054655	-0.33405782	4.34273392	7.97594935	0.71627672	3.56993106	8.84196664	2.68437243	-0.32638848	9.10032294	-1.77317018	2.16284093	9.68778227	-2.86034652	1.07687059	8.97443123	0.28225733	1.72007169	6.45934367	-2.18874684	7.15880377	6.33136814	2.12061122	12.06840982
1416	14.15000000	8.76232511	-0.32444669	4.48908852	7.87450456	0.70950094	3.37587860	9.17115683	2.49834602	-0.51422745	8.98116254	-1.89656616	2.11126815	9.83129736	-3.28247806	0.97273055	8.91349907	0.32233743	1.90336890	6.67773702	-1.93360944	7.01834218	6.78840947	1.96498475	11.88955089
1417	14.16000000	8.77685812	-0.33961592	4.66496313	7.95723716	0.91627315	3.14260491	9.49064930	2.31258923	-0.04242683	9.22979627	-1.89028642	1.85050071	9.73317277	-3.42841575	0.89526671	8.92999562	0.10971633	1.82017170	6.67325811	-1.81433527	7.07745463	7.43090275	1.85112965	11.68964148
1418	14.17000000	8.87003190	-0.39038587	4.81291270	8.15576206	1.16315760	3.09904402	9.42307610	2.41620869	0.15595229	9.66165012	-1.95569717	1.68591352	9.92627182	-3.52720532	0.85375172	8.93604757	-0.31964725	1.67212191	6.52647203	-1.67530312	7.22795466	8.08929368	1.87188527	11.27747405
1419	14.18000000	8.91865716	-0.41276835	4.90498457	8.44825385	1.29493083	3.20149700	9.41652492	2.48881762	0.27280079	9.90699714	-1.85719189	1.92481223	9.81299170	-3.95576459	0.71915401	8.96028210	-0.62053334	1.46137242	6.56604991	-1.68951550	7.28682048	8.54441779	1.53090440	10.59388807
1420	14.19000000	8.86723209	-0.36088634	4.95177915	8.64105167	1.42039281	3.14961708	9.69462170	2.29444833	0.49644866	9.87951132	-1.89317400	1.78755095	9.63844038	-4.33812331	0.57774447	8.90136817	-0.69871378	1.36061953	6.77294272	-1.65065200	7.11840630	9.24347455	1.23074824	9.95141842
1421	14.20000000	8.83065249	-0.26582079	5.07341935	8.87532348	1.42682579	2.97932966	9.72275139	1.95276194	0.52551671	9.23339045	-1.86359484	1.76549474	10.04116704	-4.34315967	0.54777824	8.96755659	-0.94555191	1.55201833	6.77508145	-1.42308387	7.10815318	10.58612539	1.40381326	9.65403888
1422	14.21000000	8.84467472	-0.13181012	5.21813897	8.96577440	1.27070429	2.94883801	9.54267488	1.46373528	0.43833451	8.77605825	-1.65226239	2.21416836	10.08581735	-4.48027152	0.50750069	9.00751983	-1.21315445	1.82276327	6.70081159	-1.39095238	7.26256834	11.87547827	1.44973808	9.00298393
1423	14.22000000	8.77364202	-0.14654771	5.11345928	9.10005228	0.91933491	2.69287490	9.61229510	0.94569932	0.25304462	8.77478516	-1.46359974	2.69899833	9.97068632	-4.77975312	0.42369186	9.05049921	-1.18389243	1.95464682	6.78073768	-1.59006198	7.18735985	12.50560716	1.35855067	7.93851314
1424	14.23000000	8.70276519	-0.24244115	5.07344502	9.13688696	0.58811407	2.45127962	9.67352859	0.84543257	0.18581125	8.87603147	-1.50245142	2.92012608	9.99912112	-5.00377700	0.00056161	9.26451195	-0.89129170	2.00859981	6.93737907	-1.80230171	7.00552714	13.37841596	1.11893588	6.90582064
1425	14.24000000	8.72020483	-0.37016619	4.92477126	9.08547486	0.27427183	2.37365098	9.48678717	1.53497626	0.06423114	8.93771009	-1.70776383	2.87693634	9.68705706	-5.29726399	-0.24577518	9.17341022	-0.40095115	1.99184105	6.93621504	-1.93101030	6.88911020	14.16113663	0.78347194	5.80113392
1426	14.25000000	8.86379638	-0.43615684	4.88394056	9.10617259	0.02279574	2.11221109	9.40758797	2.23364489	0.03128706	8.95075780	-1.72025938	2.80720581	9.55510012	-5.12130779	-0.22030840	8.82828516	0.23788642	2.01135000	6.95500577	-1.93231272	6.68552304	14.46398877	0.47331360	4.60508866
